<svg data-logo="logo" xmlns="http://www.w3.org/2000/svg" viewBox="0 0 236 42">
        <g style="opacity: 1;" id="logogram" transform="translate(0, 1) rotate(0) translate(7, 20) scale(-1, 1) translate(-7, -20)"><path d="M13.7544 6.5C13.7544 4.77609 13.0696 3.12278 11.8506 1.90381C10.6316 0.684818 8.9783 0 7.25439 0C5.53048 0 3.87719 0.684818 2.6582 1.90381C1.43921 3.12278 0.754395 4.77609 0.754395 6.5V26.1553L6.10734 29.9908V39.3346H8.40145V29.9908L13.7544 26.1553V6.5ZM11.4603 17.4926L8.40145 20.5515V17.6838L11.4603 14.625V17.4926ZM3.09631 14.625L6.15513 17.6838V20.5515L3.09631 17.4926V14.625ZM11.4603 11.375L7.25439 15.5809L3.04851 11.2794V8.41177L7.25439 12.6176L11.4603 8.41177V11.375ZM7.25439 2.29412C8.17939 2.2982 9.07754 2.60541 9.81126 3.16867C10.545 3.73192 11.0739 4.52016 11.3169 5.41268L7.25439 9.46323L3.19189 5.41268C3.42601 4.51129 3.95107 3.71235 4.68562 3.13985C5.42016 2.56733 6.32311 2.25324 7.25439 2.24631V2.29412ZM3.04851 24.9963V20.6949L6.10734 23.7537V27.171L3.04851 24.9963ZM8.40145 27.1829V23.7537L11.4603 20.6949V24.9844L8.40145 27.1829Z" fill="#FF6B35"></path></g>
        <g style="opacity: 1;" id="logotype" transform="translate(20, 9)"><path fill="#6ECB63" d="M24.41 17.11L24.41 17.11Q24.41 20.64 22.03 22.50Q19.65 24.35 15.49 24.35L15.49 24.35Q13.18 24.35 10.88 23.75Q8.59 23.16 7.26 21.97L7.26 21.97L7.96 16.34L11.71 16.68L11.67 19.45Q12.86 20.08 13.70 20.20Q14.54 20.32 15.14 20.32L15.14 20.32Q16.99 20.32 18.18 19.85Q19.37 19.38 19.37 17.66L19.37 17.66Q19.37 15.77 17.97 15.13Q16.57 14.48 14.68 14.13L14.68 14.13Q13.04 13.85 11.37 13.31Q9.71 12.76 8.59 11.52Q7.47 10.28 7.47 7.83L7.47 7.83Q7.47 4.01 10.06 2.46Q12.65 0.90 15.73 0.90L15.73 0.90Q17.97 0.90 20 1.58Q22.03 2.26 23.12 3.42L23.12 3.42L23.33 8.35L19.58 8.70L19.27 6.04Q18.39 5.45 17.50 5.24Q16.61 5.03 15.77 5.03L15.77 5.03Q14.37 5.03 13.44 5.52Q12.51 6.01 12.51 7.23L12.51 7.23Q12.51 8.67 13.70 9.23Q14.89 9.79 16.43 10.14L16.43 10.14Q17.83 10.42 19.70 10.93Q21.58 11.43 22.99 12.82Q24.41 14.20 24.41 17.11ZM36.42 18.09L39.70 19.10Q39.36 21.83 37.81 23.09Q36.28 24.35 33.83 24.35L33.83 24.35Q31.20 24.35 29.57 23.04Q27.95 21.73 27.95 19.27L27.95 19.27L27.95 11.43L25.71 11.43L25.71 8.21L27.95 8.21L27.95 3.42L32.46 3.42L32.46 8.21L38.13 8.21L38.13 11.43L32.46 11.43L32.46 18.50Q32.46 20.57 34.35 20.57L34.35 20.57Q34.77 20.57 35.49 20.20Q36.20 19.84 36.42 18.09L36.42 18.09ZM50.42 8.00L50.42 8.00Q51.08 8.00 51.90 8.20Q52.73 8.39 53.53 8.88L53.53 8.88L54.23 14.41L50.80 14.79L50.21 12.10Q49.51 11.68 48.98 11.68L48.98 11.68Q48.21 11.68 47.63 12.27Q47.06 12.87 47.06 14.02L47.06 14.02L47.06 20.61L49.86 20.61L49.86 24L40.44 24L40.44 20.61L42.54 20.61L42.54 11.64L40.27 11.64L40.27 8.21L46.71 8.21L46.71 11.22Q47.09 9.86 47.95 8.93Q48.81 8.00 50.42 8.00ZM67.29 18.33L71.07 19.03Q70.89 21.13 69 22.74Q67.11 24.35 63.72 24.35L63.72 24.35Q60.18 24.35 57.89 22.36Q55.60 20.36 55.60 16.41L55.60 16.41Q55.60 12.76 57.68 10.33Q59.76 7.90 63.51 7.90L63.51 7.90Q66.80 7.90 68.84 9.79Q70.89 11.68 70.93 14.76L70.93 14.76Q70.93 15.91 70.68 17.04L70.68 17.04L60.32 17.04Q60.71 20.78 64.03 20.78L64.03 20.78Q65.85 20.78 66.50 19.91Q67.15 19.03 67.29 18.33L67.29 18.33ZM60.36 14.41L66.27 14.41Q66.41 13.22 65.76 12.17Q65.12 11.12 63.51 11.12L63.51 11.12Q62.11 11.12 61.34 12.03Q60.57 12.94 60.36 14.41L60.36 14.41ZM84.19 18.33L87.97 19.03Q87.80 21.13 85.91 22.74Q84.02 24.35 80.62 24.35L80.62 24.35Q77.09 24.35 74.79 22.36Q72.50 20.36 72.50 16.41L72.50 16.41Q72.50 12.76 74.58 10.33Q76.67 7.90 80.41 7.90L80.41 7.90Q83.70 7.90 85.75 9.79Q87.80 11.68 87.83 14.76L87.83 14.76Q87.83 15.91 87.59 17.04L87.59 17.04L77.23 17.04Q77.61 20.78 80.94 20.78L80.94 20.78Q82.76 20.78 83.40 19.91Q84.05 19.03 84.19 18.33L84.19 18.33ZM77.26 14.41L83.18 14.41Q83.32 13.22 82.67 12.17Q82.02 11.12 80.41 11.12L80.41 11.12Q79.01 11.12 78.24 12.03Q77.47 12.94 77.26 14.41L77.26 14.41ZM99.59 18.09L102.88 19.10Q102.53 21.83 100.99 23.09Q99.45 24.35 97.00 24.35L97.00 24.35Q94.38 24.35 92.75 23.04Q91.12 21.73 91.12 19.27L91.12 19.27L91.12 11.43L88.88 11.43L88.88 8.21L91.12 8.21L91.12 3.42L95.64 3.42L95.64 8.21L101.31 8.21L101.31 11.43L95.64 11.43L95.64 18.50Q95.64 20.57 97.53 20.57L97.53 20.57Q97.95 20.57 98.66 20.20Q99.38 19.84 99.59 18.09L99.59 18.09ZM127.59 1.25L128.29 8.25L124.30 8.60L123.60 5.24L117.65 5.24L117.65 11.61L127.21 11.61L127.21 15.56L117.65 15.56L117.65 20.01L121.36 20.01L121.36 24L110.51 24L110.51 20.01L112.96 20.01L112.96 5.24L110.51 5.24L110.51 1.25L127.59 1.25ZM148.98 20.61L148.98 24L142.19 24L142.19 21.59Q140.61 24.32 137.11 24.32L137.11 24.32Q134.87 24.32 133.23 22.98Q131.58 21.66 131.58 18.86L131.58 18.86L131.58 11.61L129.48 11.61L129.48 8.21L136.10 8.21L136.10 17.11Q136.10 19.17 136.78 20.03Q137.46 20.88 138.79 20.88L138.79 20.88Q140.40 20.88 141.29 19.84Q142.19 18.79 142.19 17.14L142.19 17.14L142.19 11.61L139.63 11.61L139.63 8.21L146.70 8.21L146.70 20.61L148.98 20.61ZM164.69 19.17L164.69 19.17Q164.69 21.80 162.61 23.07Q160.53 24.35 157.20 24.35L157.20 24.35Q155.49 24.35 153.75 23.98Q152.02 23.61 150.45 22.81L150.45 22.81L151.08 18.40L154.58 18.79L154.58 20.75Q155.21 20.95 155.91 21.01Q156.61 21.06 156.96 21.06L156.96 21.06Q158.25 21.06 159.20 20.64Q160.14 20.22 160.14 19.38L160.14 19.38Q160.14 18.36 158.71 18.05Q157.27 17.73 155.38 17.42Q153.49 17.11 152.06 16.13Q150.62 15.14 150.62 12.80L150.62 12.80Q150.62 9.89 152.88 8.90Q155.14 7.90 157.55 7.90L157.55 7.90Q160.70 7.90 163.47 9.33L163.47 9.33L163.85 13.36L160.35 13.74L160.07 11.54Q158.92 11.15 157.59 11.15L157.59 11.15Q156.71 11.15 156.10 11.52Q155.49 11.89 155.49 12.66L155.49 12.66Q155.49 13.67 156.87 14.01Q158.25 14.34 160.09 14.65Q161.93 14.97 163.31 15.93Q164.69 16.89 164.69 19.17ZM173.09 5.41L168.58 5.41L168.58 0.72L173.09 0.72L173.09 5.41ZM175.37 20.61L175.37 24L166.65 24L166.65 20.61L168.75 20.61L168.75 11.64L166.48 11.64L166.48 8.21L173.27 8.21L173.27 20.61L175.37 20.61ZM193.60 16.13L193.60 16.13Q193.60 19.87 191.15 22.11Q188.70 24.35 184.92 24.35L184.92 24.35Q181.28 24.35 178.99 22.23Q176.70 20.11 176.70 16.30L176.70 16.30Q176.70 12.83 178.80 10.35Q180.90 7.86 185.17 7.86L185.17 7.86Q189.44 7.86 191.52 10.33Q193.60 12.80 193.60 16.13ZM188.95 15.98L188.95 15.98Q188.95 13.57 187.83 12.45Q186.71 11.33 185.10 11.33L185.10 11.33Q183.35 11.33 182.35 12.57Q181.35 13.81 181.35 16.05L181.35 16.05Q181.35 18.09 182.28 19.48Q183.21 20.88 185.06 20.88L185.06 20.88Q186.81 20.88 187.88 19.57Q188.95 18.26 188.95 15.98ZM214.64 20.61L214.64 24L205.92 24L205.92 20.61L208.02 20.61L208.02 15.11Q208.02 13.08 207.34 12.20Q206.66 11.33 205.33 11.33L205.33 11.33Q203.72 11.33 202.84 12.33Q201.97 13.32 201.93 14.93L201.93 14.93L201.93 20.61L204.03 20.61L204.03 24L195.32 24L195.32 20.61L197.42 20.61L197.42 11.64L195.14 11.64L195.14 8.21L201.93 8.21L201.93 10.63Q203.51 7.90 207.01 7.90L207.01 7.90Q209.25 7.90 210.89 9.23Q212.54 10.56 212.54 13.36L212.54 13.36L212.54 20.61L214.64 20.61Z"></path></g>
        
      </svg>